<svg xmlns="http://www.w3.org/2000/svg" viewBox="0 0 256 256" width="256" height="256">
  <!-- Strip / Jitter Plot icon -->
  <!-- Group A points (jittered around x=100) -->
  <circle cx="92" cy="65" r="5" fill="#76c6ff" stroke="#363636" stroke-width="1.5"/>
  <circle cx="108" cy="80" r="5" fill="#76c6ff" stroke="#363636" stroke-width="1.5"/>
  <circle cx="96" cy="100" r="5" fill="#76c6ff" stroke="#363636" stroke-width="1.5"/>
  <circle cx="104" cy="95" r="5" fill="#76c6ff" stroke="#363636" stroke-width="1.5"/>
  <circle cx="88" cy="120" r="5" fill="#76c6ff" stroke="#363636" stroke-width="1.5"/>
  <circle cx="112" cy="110" r="5" fill="#76c6ff" stroke="#363636" stroke-width="1.5"/>
  <circle cx="100" cy="140" r="5" fill="#76c6ff" stroke="#363636" stroke-width="1.5"/>
  <circle cx="94" cy="155" r="5" fill="#76c6ff" stroke="#363636" stroke-width="1.5"/>
  <circle cx="106" cy="170" r="5" fill="#76c6ff" stroke="#363636" stroke-width="1.5"/>
  <circle cx="98" cy="190" r="5" fill="#76c6ff" stroke="#363636" stroke-width="1.5"/>
  <!-- Group B points (jittered around x=170) -->
  <circle cx="162" cy="50" r="5" fill="#B8B8B8" stroke="#363636" stroke-width="1.5"/>
  <circle cx="178" cy="60" r="5" fill="#B8B8B8" stroke="#363636" stroke-width="1.5"/>
  <circle cx="166" cy="75" r="5" fill="#B8B8B8" stroke="#363636" stroke-width="1.5"/>
  <circle cx="174" cy="90" r="5" fill="#B8B8B8" stroke="#363636" stroke-width="1.5"/>
  <circle cx="158" cy="105" r="5" fill="#B8B8B8" stroke="#363636" stroke-width="1.5"/>
  <circle cx="182" cy="100" r="5" fill="#B8B8B8" stroke="#363636" stroke-width="1.5"/>
  <circle cx="170" cy="130" r="5" fill="#B8B8B8" stroke="#363636" stroke-width="1.5"/>
  <circle cx="164" cy="150" r="5" fill="#B8B8B8" stroke="#363636" stroke-width="1.5"/>
  <circle cx="176" cy="175" r="5" fill="#B8B8B8" stroke="#363636" stroke-width="1.5"/>
  <circle cx="168" cy="200" r="5" fill="#B8B8B8" stroke="#363636" stroke-width="1.5"/>
  <!-- Y-axis -->
  <line x1="48" y1="28" x2="48" y2="220" stroke="#363636" stroke-width="4" stroke-linecap="round"/>
  <!-- X-axis -->
  <line x1="44" y1="216" x2="240" y2="216" stroke="#363636" stroke-width="4" stroke-linecap="round"/>
</svg>
