<svg xmlns="http://www.w3.org/2000/svg" viewBox="0 0 256 256" width="256" height="256">
  <!-- Rose / Nightingale Chart icon: 6 wedges (60° each), varied radii, 2 colors -->
  <!-- Center (128,128). Radii: 95, 60, 80, 45, 100, 70 — non-alternating variation -->
  <!-- Wedge 1: 0°–60°,   r=95  --> <path d="M128,128 L128,33   A95,95,0,0,1,210,81   Z" fill="#76c6ff" stroke="white" stroke-width="2"/>
  <!-- Wedge 2: 60°–120°,  r=60  --> <path d="M128,128 L180,98   A60,60,0,0,1,180,158  Z" fill="#B8B8B8" stroke="white" stroke-width="2"/>
  <!-- Wedge 3: 120°–180°, r=80  --> <path d="M128,128 L197,168  A80,80,0,0,1,128,208  Z" fill="#76c6ff" stroke="white" stroke-width="2"/>
  <!-- Wedge 4: 180°–240°, r=45  --> <path d="M128,128 L128,173  A45,45,0,0,1,89,151   Z" fill="#76c6ff" stroke="white" stroke-width="2"/>
  <!-- Wedge 5: 240°–300°, r=100 --> <path d="M128,128 L41,178   A100,100,0,0,1,41,78  Z" fill="#B8B8B8" stroke="white" stroke-width="2"/>
  <!-- Wedge 6: 300°–360°, r=70  --> <path d="M128,128 L67,93    A70,70,0,0,1,128,58   Z" fill="#B8B8B8" stroke="white" stroke-width="2"/>
  <!-- Dark border outlines -->
  <path d="M128,128 L128,33   A95,95,0,0,1,210,81   Z" fill="none" stroke="#363636" stroke-width="1.5"/>
  <path d="M128,128 L180,98   A60,60,0,0,1,180,158  Z" fill="none" stroke="#363636" stroke-width="1.5"/>
  <path d="M128,128 L197,168  A80,80,0,0,1,128,208  Z" fill="none" stroke="#363636" stroke-width="1.5"/>
  <path d="M128,128 L128,173  A45,45,0,0,1,89,151   Z" fill="none" stroke="#363636" stroke-width="1.5"/>
  <path d="M128,128 L41,178   A100,100,0,0,1,41,78  Z" fill="none" stroke="#363636" stroke-width="1.5"/>
  <path d="M128,128 L67,93    A70,70,0,0,1,128,58   Z" fill="none" stroke="#363636" stroke-width="1.5"/>
</svg>
